<svg xmlns="http://www.w3.org/2000/svg" viewBox="0 0 461.32 335.97"><defs><style>.cls-1{fill:#d8d8d3;}.cls-2{font-size:43.63px;font-family:Bungee-Shade, Bungee;}.cls-2,.cls-8{fill:#231f20;}.cls-3{fill:#520023;}.cls-4{fill:#fdce30;}.cls-5{fill:#f1606e;}.cls-6{fill:#30b44a;}.cls-7{fill:#fff;}.cls-9{fill:#f2f2f2;}.cls-10{letter-spacing:0em;}.cls-11{font-size:12px;font-family:Bungee-Hairline, Bungee;font-weight:100;}.cls-12{letter-spacing:-0.02em;}.cls-13{letter-spacing:-0.01em;}.cls-14{letter-spacing:0em;}.cls-15{letter-spacing:-0.01em;}.cls-16{letter-spacing:-0.01em;}.cls-17{letter-spacing:0em;}.cls-18{letter-spacing:-0.01em;}</style></defs><g id="Layer_2" data-name="Layer 2"><g id="Layer_1-2" data-name="Layer 1"><path class="cls-1" d="M439.43,320.47c-46,18.55-391.52,21.95-421.66,1.92-42.52-28.27,4.61-187.83,4.61-187.83S33.58,0,228,0C397.27,0,438.81,132.25,438.81,132.25S489,300.46,439.43,320.47Z"/><text class="cls-2" transform="translate(39.96 141.62)">Res</text><path class="cls-3" d="M289.92,142.24s-15.3-75-71.66-75c-64.73,0-68.46,77.92-68.46,77.92s-15.69,92.39-1.54,108.76c10,11.6,122.34,13.21,140.4-1.11C307.53,237.83,289.92,142.24,289.92,142.24Zm-57.07,48.21S228.2,171,209.25,171c-21.76,0-23,19.83-23,19.83l-.52,27.68,47.2-.28ZM209.42,200c-13.06,0-23.64,7-23.64,15.67s10.58,15.68,23.64,15.68,23.64-7,23.64-15.68S222.48,200,209.42,200ZM167,101.11l92.18-.16s7.22,1.55,9.58-4.8S277.3,82.64,289,77.28c8.18-3.77,4.06-16.68-4.32-17.41-29.2-2.54-38.56,9.77-45,8.22-1.37-.33-10.75-28.48-10.75-28.48S227,33.53,214,38.54c-11.74,4.54-10.53,30-14.21,27.6-5.62-3.66-36.28-9.47-44.13-6.41-8.42,3.28-12,6.75-12,6.75l-.08,7.41Zm-.42-16.31c-18.37,0-33.25,14.26-33.25,31.85s14.88,31.84,33.25,31.84,33.26-14.25,33.26-31.84S184.92,84.8,166.55,84.8Zm2.14,9.54c-11.32,0-20.5,8.78-20.5,19.63s9.18,19.63,20.5,19.63,20.5-8.79,20.5-19.63S180,94.34,168.69,94.34Zm5.64,6.77a7.46,7.46,0,1,0,7.78,7.45A7.62,7.62,0,0,0,174.33,101.11Zm88.36-19c-18.36,0-33.25,14.26-33.25,31.85s14.89,31.84,33.25,31.84S296,131.55,296,114,281.06,82.12,262.69,82.12Zm2.14,9.53c-11.32,0-20.5,8.79-20.5,19.63s9.18,19.63,20.5,19.63,20.5-8.79,20.5-19.63S276.15,91.65,264.83,91.65Zm5.64,6.78a7.46,7.46,0,1,0,7.78,7.45A7.63,7.63,0,0,0,270.47,98.43Z"/><path class="cls-4" d="M288.73,249.48c-14.45,10.59-123.1,12.53-132.57,1.09-13.37-16.14,1.45-107.25,1.45-107.25s3.52-76.84,64.64-76.84c53.22,0,66.29,75.52,66.29,75.52S304.33,238.05,288.73,249.48Z"/><path class="cls-3" d="M236.09,215.35l-44.56.28.49-27.29s1.18-19.56,21.72-19.56C231.64,168.78,236,188,236,188Z"/><ellipse class="cls-5" cx="213.9" cy="212.85" rx="22.33" ry="15.46"/><path class="cls-6" d="M150.57,71.66v-7s3.48-5.2,11.42-4.51,35.91,5,41.22,8.64c3.48,2.36,3.52-29.67,14.48-30.92C227.44,36.8,228,39.72,228,39.72s9.7,29.2,11,29.52c6.13,1.54,17.27-11,44.84-8.49,7.92.72,12.6,11.6,4.87,15.32-11,5.29-16.57,12.67-18.8,18.94s-9.05,4.73-9.05,4.73l-87,.17Z"/><circle class="cls-7" cx="173.42" cy="115.23" r="31.4"/><circle class="cls-8" cx="175.44" cy="112.58" r="19.36"/><circle class="cls-9" cx="180.77" cy="107.25" r="7.35"/><circle class="cls-7" cx="264.21" cy="112.58" r="31.4"/><circle class="cls-8" cx="266.23" cy="109.93" r="19.36"/><circle class="cls-9" cx="271.56" cy="104.61" r="7.35"/><text class="cls-2" transform="translate(287.77 197.39)">T<tspan class="cls-10" x="32.99" y="0">E</tspan><tspan x="65.67" y="0">C</tspan></text><text class="cls-11" transform="translate(84.82 292.37)">Br<tspan class="cls-12" x="17.62" y="0">ay</tspan><tspan x="34.24" y="0">an L</tspan><tspan class="cls-13" x="63.07" y="0">e</tspan><tspan class="cls-14" x="70.86" y="0">ón -</tspan><tspan class="cls-15" x="96.48" y="0"> </tspan><tspan x="99.06" y="0">Juan Solís -</tspan><tspan class="cls-16" x="184.55" y="0"> </tspan><tspan class="cls-17" x="187.13" y="0">T</tspan><tspan x="194.94" y="0">omás S</tspan><tspan class="cls-18" x="241.03" y="0">e</tspan><tspan x="248.82" y="0">gur</tspan><tspan class="cls-17" x="275.18" y="0">a</tspan></text></g></g></svg>